<svg width="144" height="144" viewBox="0 0 144 144" fill="none" xmlns="http://www.w3.org/2000/svg">
<circle cx="72" cy="72" r="72" fill="black"/>
<rect x="33.7148" y="66.207" width="76.5164" height="10.79" fill="white"/>
<rect width="63.5074" height="9.23262" transform="matrix(0.693114 -0.720828 0.693114 0.720828 67.4375 70.1758)" fill="white"/>
<path d="M109.582 26.4173L118.012 17.2773V125.277L109.582 129.597V26.4173Z" fill="white"/>
<rect width="63.5074" height="9.23262" transform="matrix(-0.693114 -0.720828 -0.693114 0.720828 76.5117 70.1758)" fill="white"/>
<path d="M67.2728 110.64L111.291 64.8617L117.69 71.5168L71.3326 118.809L67.2728 110.64Z" fill="white"/>
<path d="M76.3791 110.67L32.3612 64.8916L25.962 71.5467L69.9798 117.325L71.3178 118.809L76.3791 110.67Z" fill="white"/>
<path d="M34.3672 26.4173L25.9374 17.2773L25.9241 126.717L34.3672 129.597V26.4173Z" fill="white"/>
<path d="M144 72C144 111.765 111.765 144 72 144C32.2355 144 0 111.765 0 72C0 32.2355 32.2355 0 72 0C111.765 0 144 32.2355 144 72ZM4.47544 72C4.47544 109.293 34.7072 139.525 72 139.525C109.293 139.525 139.525 109.293 139.525 72C139.525 34.7072 109.293 4.47544 72 4.47544C34.7072 4.47544 4.47544 34.7072 4.47544 72Z" fill="white"/>
</svg>
